<mxfile host="app.diagrams.net" modified="2021-12-02T08:02:29.594Z" agent="5.0 (Windows NT 10.0; Win64; x64) AppleWebKit/537.36 (KHTML, like Gecko) Chrome/96.0.4664.45 Safari/537.36" etag="XfXlVrr6Q2jP8G4Hj-RD" version="15.8.8" type="github">
  <diagram id="HZEH3Uh2V23n6DG56XfE" name="Page-1">
    <mxGraphModel dx="1730" dy="980" grid="1" gridSize="10" guides="1" tooltips="1" connect="1" arrows="1" fold="1" page="1" pageScale="1" pageWidth="8027" pageHeight="11069" math="0" shadow="0">
      <root>
        <mxCell id="0" />
        <mxCell id="1" parent="0" />
        <mxCell id="BJjL9hMIaNt4m382q4s9-12" value="" style="rounded=0;whiteSpace=wrap;html=1;" parent="1" vertex="1">
          <mxGeometry x="1130" y="190" width="1060" height="830" as="geometry" />
        </mxCell>
        <mxCell id="BJjL9hMIaNt4m382q4s9-15" value="" style="rounded=0;whiteSpace=wrap;html=1;fontSize=20;fillColor=#f5f5f5;fontColor=#333333;strokeColor=#666666;" parent="1" vertex="1">
          <mxGeometry x="1140" y="200" width="1040" height="590" as="geometry" />
        </mxCell>
        <mxCell id="BJjL9hMIaNt4m382q4s9-1" value="" style="rounded=1;whiteSpace=wrap;html=1;fillColor=#f5f5f5;gradientColor=#b3b3b3;strokeColor=#666666;" parent="1" vertex="1">
          <mxGeometry x="1430" y="240" width="720" height="220" as="geometry" />
        </mxCell>
        <mxCell id="BJjL9hMIaNt4m382q4s9-2" value="" style="rounded=1;whiteSpace=wrap;html=1;fillColor=#f5f5f5;gradientColor=#b3b3b3;strokeColor=#666666;" parent="1" vertex="1">
          <mxGeometry x="1430" y="480" width="720" height="160" as="geometry" />
        </mxCell>
        <mxCell id="BJjL9hMIaNt4m382q4s9-3" value="nDPI Library" style="rounded=1;whiteSpace=wrap;html=1;fontSize=20;fontStyle=1;fillColor=#f8cecc;gradientColor=#ea6b66;strokeColor=#b85450;" parent="1" vertex="1">
          <mxGeometry x="1450" y="500" width="320" height="120" as="geometry" />
        </mxCell>
        <mxCell id="BJjL9hMIaNt4m382q4s9-4" value="&lt;font style=&quot;font-size: 20px&quot;&gt;&lt;b&gt;DPI App&lt;/b&gt;&lt;/font&gt;" style="rounded=1;whiteSpace=wrap;html=1;fillColor=#f8cecc;gradientColor=#ea6b66;strokeColor=#b85450;" parent="1" vertex="1">
          <mxGeometry x="1790" y="500" width="340" height="120" as="geometry" />
        </mxCell>
        <mxCell id="BJjL9hMIaNt4m382q4s9-5" value="WedUI" style="rounded=1;whiteSpace=wrap;html=1;fontSize=20;fontStyle=1;fillColor=#fff2cc;gradientColor=#ffd966;strokeColor=#d6b656;" parent="1" vertex="1">
          <mxGeometry x="1460" y="270" width="190" height="160" as="geometry" />
        </mxCell>
        <mxCell id="BJjL9hMIaNt4m382q4s9-6" value="Remote Control Service Client" style="rounded=1;whiteSpace=wrap;html=1;fontSize=20;fontStyle=1;fillColor=#fff2cc;gradientColor=#ffd966;strokeColor=#d6b656;" parent="1" vertex="1">
          <mxGeometry x="1710" y="270" width="190" height="160" as="geometry" />
        </mxCell>
        <mxCell id="BJjL9hMIaNt4m382q4s9-7" value="DPI Console" style="rounded=1;whiteSpace=wrap;html=1;fontSize=20;fontStyle=1;fillColor=#fff2cc;gradientColor=#ffd966;strokeColor=#d6b656;" parent="1" vertex="1">
          <mxGeometry x="1930" y="270" width="190" height="160" as="geometry" />
        </mxCell>
        <mxCell id="BJjL9hMIaNt4m382q4s9-8" value="" style="rounded=1;whiteSpace=wrap;html=1;direction=south;fillColor=#f5f5f5;gradientColor=#b3b3b3;strokeColor=#666666;" parent="1" vertex="1">
          <mxGeometry x="1200" y="240" width="210" height="400" as="geometry" />
        </mxCell>
        <mxCell id="BJjL9hMIaNt4m382q4s9-9" value="Configure Database" style="rounded=1;whiteSpace=wrap;html=1;fontSize=20;fontStyle=1;fillColor=#dae8fc;gradientColor=#7ea6e0;strokeColor=#6c8ebf;" parent="1" vertex="1">
          <mxGeometry x="1220" y="270" width="150" height="160" as="geometry" />
        </mxCell>
        <mxCell id="BJjL9hMIaNt4m382q4s9-10" value="Protocol Database" style="rounded=1;whiteSpace=wrap;html=1;fontSize=20;fontStyle=1;fillColor=#dae8fc;gradientColor=#7ea6e0;strokeColor=#6c8ebf;" parent="1" vertex="1">
          <mxGeometry x="1220" y="460" width="150" height="160" as="geometry" />
        </mxCell>
        <mxCell id="BJjL9hMIaNt4m382q4s9-11" value="Capture Stack" style="rounded=1;whiteSpace=wrap;html=1;fontSize=20;fontStyle=1;fillColor=#d5e8d4;gradientColor=#97d077;strokeColor=#82b366;" parent="1" vertex="1">
          <mxGeometry x="1200" y="670" width="950" height="100" as="geometry" />
        </mxCell>
        <mxCell id="BJjL9hMIaNt4m382q4s9-14" value="Database" style="text;html=1;strokeColor=none;fillColor=none;align=center;verticalAlign=middle;whiteSpace=wrap;rounded=0;fontSize=20;rotation=90;fontStyle=1" parent="1" vertex="1">
          <mxGeometry x="1360" y="425" width="60" height="30" as="geometry" />
        </mxCell>
        <mxCell id="BJjL9hMIaNt4m382q4s9-17" value="" style="rounded=0;whiteSpace=wrap;html=1;fontSize=20;fillColor=#f5f5f5;fontColor=#333333;strokeColor=#666666;" parent="1" vertex="1">
          <mxGeometry x="1140" y="820" width="1040" height="190" as="geometry" />
        </mxCell>
        <mxCell id="BJjL9hMIaNt4m382q4s9-18" value="System call interface" style="rounded=1;whiteSpace=wrap;html=1;fontSize=20;fillColor=#bac8d3;strokeColor=#23445d;fontStyle=1" parent="1" vertex="1">
          <mxGeometry x="1200" y="840" width="950" height="70" as="geometry" />
        </mxCell>
        <mxCell id="BJjL9hMIaNt4m382q4s9-19" value="File system" style="rounded=1;whiteSpace=wrap;html=1;fontSize=20;fontStyle=1;fillColor=#bac8d3;strokeColor=#23445d;" parent="1" vertex="1">
          <mxGeometry x="1200" y="930" width="300" height="60" as="geometry" />
        </mxCell>
        <mxCell id="BJjL9hMIaNt4m382q4s9-20" value="Memory managerment" style="rounded=1;whiteSpace=wrap;html=1;fontSize=20;fontStyle=1;fillColor=#bac8d3;strokeColor=#23445d;" parent="1" vertex="1">
          <mxGeometry x="1540" y="930" width="310" height="60" as="geometry" />
        </mxCell>
        <mxCell id="BJjL9hMIaNt4m382q4s9-21" value="Process managerment" style="rounded=1;whiteSpace=wrap;html=1;fontSize=20;fontStyle=1;fillColor=#bac8d3;strokeColor=#23445d;" parent="1" vertex="1">
          <mxGeometry x="1890" y="930" width="260" height="60" as="geometry" />
        </mxCell>
        <mxCell id="BJjL9hMIaNt4m382q4s9-22" value="User Space" style="text;html=1;strokeColor=none;fillColor=none;align=center;verticalAlign=middle;whiteSpace=wrap;rounded=0;fontSize=25;rotation=-90;fontStyle=1" parent="1" vertex="1">
          <mxGeometry x="1070" y="460" width="200" height="50" as="geometry" />
        </mxCell>
        <mxCell id="BJjL9hMIaNt4m382q4s9-23" value="Kernel Space" style="text;html=1;strokeColor=none;fillColor=none;align=center;verticalAlign=middle;whiteSpace=wrap;rounded=0;fontFamily=Times New Roman;fontSize=25;rotation=-90;fontStyle=1" parent="1" vertex="1">
          <mxGeometry x="1045" y="890" width="250" height="70" as="geometry" />
        </mxCell>
      </root>
    </mxGraphModel>
  </diagram>
</mxfile>
